<?xml version="1.0" encoding="UTF-8" standalone="no"?>
<!DOCTYPE svg PUBLIC "-//W3C//DTD SVG 1.1//EN" "http://www.w3.org/Graphics/SVG/1.1/DTD/svg11.dtd">
<svg width="100%" height="100%" viewBox="0 0 5051 1080" version="1.1" xmlns="http://www.w3.org/2000/svg" xmlns:xlink="http://www.w3.org/1999/xlink" xml:space="preserve" xmlns:serif="http://www.serif.com/" style="fill-rule:evenodd;clip-rule:evenodd;stroke-linejoin:round;stroke-miterlimit:2;">
    <g transform="matrix(1,0,0,1,-3623.579634,0)">
        <g id="Main" transform="matrix(4.676208,0,0,1,3623.579634,0)">
            <rect x="0" y="0" width="1080" height="1080" style="fill:none;"/>
            <g transform="matrix(0.126831,0,0,0.722343,42.289368,70.885987)">
                <path d="M885.625,866.562L514.782,279.243L21.144,1074.175C-5.274,1116.718 -68.79,1133.647 -120.605,1111.956C-172.42,1090.265 -193.038,1038.114 -166.62,995.571L387.511,103.223C411.73,64.222 460.473,39.611 513.792,39.463C567.111,39.314 616.056,63.654 640.596,102.519L1192.669,976.858L1192.681,976.876C1215.877,1013.634 1207.647,1058.471 1172.286,1087.983C1137.239,1117.234 1083.421,1124.851 1038.638,1107.076C865.362,1039.684 510.106,935.133 469.01,919.29C416.363,898.995 393.688,847.424 418.406,804.197C443.124,760.97 505.935,742.353 558.583,762.648C584.447,772.619 734.577,817.694 885.625,866.562Z" style="fill:rgb(0,103,255);"/>
            </g>
            <g transform="matrix(0.213848,0,0,1,-4.572726,-0)">
                <g transform="matrix(883.333333,0,0,883.333333,4822.886022,847.409075)">
                </g>
                <text x="965.369px" y="847.409px" style="font-family:'Nunito-Bold', 'Nunito';font-weight:700;font-size:883.333px;fill:rgb(0,103,255);">pr<tspan x="1834.569px 2331.886px " y="847.409px 847.409px ">ox</tspan>imed</text>
            </g>
        </g>
    </g>
</svg>
