<?xml version="1.0" encoding="UTF-8" standalone="no"?>
<!DOCTYPE svg PUBLIC "-//W3C//DTD SVG 1.1//EN" "http://www.w3.org/Graphics/SVG/1.1/DTD/svg11.dtd">
<svg width="100%" height="100%" viewBox="0 0 5051 1080" version="1.1" xmlns="http://www.w3.org/2000/svg" xmlns:xlink="http://www.w3.org/1999/xlink" xml:space="preserve" xmlns:serif="http://www.serif.com/" style="fill-rule:evenodd;clip-rule:evenodd;stroke-linejoin:round;stroke-miterlimit:2;">
    <g transform="matrix(1,0,0,1,-3623.579634,0)">
        <g id="Main" transform="matrix(4.676208,0,0,1,3623.579634,0)">
            <rect x="0" y="0" width="1080" height="1080" style="fill:none;"/>
            <g transform="matrix(0.126831,0,0,0.722343,42.289368,70.885987)">
                <path d="M922.848,894.181L514.652,247.705L5.497,1067.624C-16.518,1103.077 -69.448,1117.185 -112.627,1099.109C-155.806,1081.033 -172.988,1037.574 -150.973,1002.121L403.158,109.774C424.388,75.587 467.114,54.013 513.852,53.883C560.589,53.753 603.493,75.088 625.004,109.156L1177.077,983.495L1177.086,983.51C1196.786,1014.728 1189.796,1052.807 1159.766,1077.87C1129.996,1102.717 1084.278,1109.184 1046.272,1094.089C873.018,1026.691 517.584,922.084 476.475,906.237C432.602,889.324 413.706,846.348 434.305,810.326C454.903,774.304 507.246,758.789 551.118,775.702C579.537,786.657 758.004,839.999 922.848,894.181Z" style="fill:rgb(0,103,255);"/>
            </g>
            <g transform="matrix(0.213848,0,0,1,-4.572726,-0)">
                <g transform="matrix(883.333333,0,0,883.333333,4822.886022,847.409075)">
                </g>
                <text x="965.369px" y="847.409px" style="font-family:'Nunito-Bold', 'Nunito';font-weight:700;font-size:883.333px;fill:rgb(0,103,255);">pr<tspan x="1834.569px 2331.886px " y="847.409px 847.409px ">ox</tspan>imed</text>
            </g>
        </g>
    </g>
</svg>
